<svg id="visual" viewBox="0 0 3840 2160" width="3840" height="2160" xmlns="http://www.w3.org/2000/svg" xmlns:xlink="http://www.w3.org/1999/xlink" version="1.1"><rect x="0" y="0" width="3840" height="2160" fill="#f7f4eb"></rect><defs><linearGradient id="grad1_0" x1="43.8%" y1="0%" x2="100%" y2="100%"><stop offset="14.444444444444446%" stop-color="#809280" stop-opacity="1"></stop><stop offset="85.55555555555554%" stop-color="#809280" stop-opacity="1"></stop></linearGradient></defs><defs><linearGradient id="grad1_1" x1="43.8%" y1="0%" x2="100%" y2="100%"><stop offset="14.444444444444446%" stop-color="#809280" stop-opacity="1"></stop><stop offset="85.55555555555554%" stop-color="#95a18f" stop-opacity="1"></stop></linearGradient></defs><defs><linearGradient id="grad1_2" x1="43.8%" y1="0%" x2="100%" y2="100%"><stop offset="14.444444444444446%" stop-color="#a9b1a0" stop-opacity="1"></stop><stop offset="85.55555555555554%" stop-color="#95a18f" stop-opacity="1"></stop></linearGradient></defs><defs><linearGradient id="grad1_3" x1="43.8%" y1="0%" x2="100%" y2="100%"><stop offset="14.444444444444446%" stop-color="#a9b1a0" stop-opacity="1"></stop><stop offset="85.55555555555554%" stop-color="#bdc1b1" stop-opacity="1"></stop></linearGradient></defs><defs><linearGradient id="grad1_4" x1="43.8%" y1="0%" x2="100%" y2="100%"><stop offset="14.444444444444446%" stop-color="#d1d2c4" stop-opacity="1"></stop><stop offset="85.55555555555554%" stop-color="#bdc1b1" stop-opacity="1"></stop></linearGradient></defs><defs><linearGradient id="grad1_5" x1="43.8%" y1="0%" x2="100%" y2="100%"><stop offset="14.444444444444446%" stop-color="#d1d2c4" stop-opacity="1"></stop><stop offset="85.55555555555554%" stop-color="#e4e3d7" stop-opacity="1"></stop></linearGradient></defs><defs><linearGradient id="grad1_6" x1="43.8%" y1="0%" x2="100%" y2="100%"><stop offset="14.444444444444446%" stop-color="#f7f4eb" stop-opacity="1"></stop><stop offset="85.55555555555554%" stop-color="#e4e3d7" stop-opacity="1"></stop></linearGradient></defs><defs><linearGradient id="grad2_0" x1="0%" y1="0%" x2="56.3%" y2="100%"><stop offset="14.444444444444446%" stop-color="#809280" stop-opacity="1"></stop><stop offset="85.55555555555554%" stop-color="#809280" stop-opacity="1"></stop></linearGradient></defs><defs><linearGradient id="grad2_1" x1="0%" y1="0%" x2="56.3%" y2="100%"><stop offset="14.444444444444446%" stop-color="#95a18f" stop-opacity="1"></stop><stop offset="85.55555555555554%" stop-color="#809280" stop-opacity="1"></stop></linearGradient></defs><defs><linearGradient id="grad2_2" x1="0%" y1="0%" x2="56.3%" y2="100%"><stop offset="14.444444444444446%" stop-color="#95a18f" stop-opacity="1"></stop><stop offset="85.55555555555554%" stop-color="#a9b1a0" stop-opacity="1"></stop></linearGradient></defs><defs><linearGradient id="grad2_3" x1="0%" y1="0%" x2="56.3%" y2="100%"><stop offset="14.444444444444446%" stop-color="#bdc1b1" stop-opacity="1"></stop><stop offset="85.55555555555554%" stop-color="#a9b1a0" stop-opacity="1"></stop></linearGradient></defs><defs><linearGradient id="grad2_4" x1="0%" y1="0%" x2="56.3%" y2="100%"><stop offset="14.444444444444446%" stop-color="#bdc1b1" stop-opacity="1"></stop><stop offset="85.55555555555554%" stop-color="#d1d2c4" stop-opacity="1"></stop></linearGradient></defs><defs><linearGradient id="grad2_5" x1="0%" y1="0%" x2="56.3%" y2="100%"><stop offset="14.444444444444446%" stop-color="#e4e3d7" stop-opacity="1"></stop><stop offset="85.55555555555554%" stop-color="#d1d2c4" stop-opacity="1"></stop></linearGradient></defs><defs><linearGradient id="grad2_6" x1="0%" y1="0%" x2="56.3%" y2="100%"><stop offset="14.444444444444446%" stop-color="#e4e3d7" stop-opacity="1"></stop><stop offset="85.55555555555554%" stop-color="#f7f4eb" stop-opacity="1"></stop></linearGradient></defs><g transform="translate(3840, 0)"><path d="M0 1188C-62.4 1185.7 -124.8 1183.4 -185.8 1173.4C-246.9 1163.3 -306.6 1145.5 -364.3 1121.3C-422.1 1097.1 -477.8 1066.4 -520.3 1021.1C-562.7 975.8 -591.9 915.8 -640.7 881.8C-689.4 847.8 -757.8 839.8 -811.1 811.1C-864.3 782.3 -902.6 732.9 -942.5 684.8C-982.4 636.6 -1023.9 589.8 -1047.8 533.9C-1071.7 478 -1077.9 413.2 -1084.2 352.3C-1090.5 291.4 -1096.8 234.5 -1114.1 176.5C-1131.4 118.4 -1159.7 59.2 -1188 0L0 0Z" fill="#eeebe1"></path><path d="M0 1018.3C-53.5 1016.3 -107 1014.4 -159.3 1005.7C-211.6 997.1 -262.8 981.9 -312.3 961.1C-361.8 940.3 -409.5 914.1 -445.9 875.2C-482.3 836.4 -507.4 785 -549.2 755.9C-590.9 726.7 -649.5 719.8 -695.2 695.2C-740.9 670.6 -773.7 628.2 -807.9 586.9C-842.1 545.7 -877.7 505.5 -898.1 457.6C-918.6 409.7 -923.9 354.1 -929.3 302C-934.7 249.8 -940.1 201 -955 151.2C-969.8 101.5 -994 50.7 -1018.3 0L0 0Z" fill="#dbdacd"></path><path d="M0 848.6C-44.6 846.9 -89.1 845.3 -132.7 838.1C-176.4 830.9 -219 818.2 -260.2 800.9C-301.5 783.6 -341.3 761.7 -371.6 729.4C-402 697 -422.8 654.2 -457.6 629.9C-492.5 605.6 -541.3 599.8 -579.3 579.3C-617.4 558.8 -644.7 523.5 -673.2 489.1C-701.7 454.7 -731.4 421.3 -748.4 381.4C-765.5 341.4 -769.9 295.1 -774.4 251.6C-778.9 208.1 -783.4 167.5 -795.8 126C-808.2 84.6 -828.4 42.3 -848.6 0L0 0Z" fill="#c7c9bb"></path><path d="M0 678.9C-35.7 677.5 -71.3 676.2 -106.2 670.5C-141.1 664.8 -175.2 654.6 -208.2 640.7C-241.2 626.9 -273 609.4 -297.3 583.5C-321.6 557.6 -338.2 523.3 -366.1 503.9C-394 484.5 -433 479.9 -463.5 463.5C-493.9 447 -515.8 418.8 -538.6 391.3C-561.4 363.8 -585.1 337 -598.8 305.1C-612.4 273.2 -616 236.1 -619.5 201.3C-623.1 166.5 -626.7 134 -636.6 100.8C-646.5 67.7 -662.7 33.8 -678.9 0L0 0Z" fill="#b3b9a9"></path><path d="M0 509.1C-26.7 508.2 -53.5 507.2 -79.6 502.9C-105.8 498.6 -131.4 490.9 -156.1 480.6C-180.9 470.2 -204.8 457 -223 437.6C-241.2 418.2 -253.7 392.5 -274.6 377.9C-295.5 363.4 -324.8 359.9 -347.6 347.6C-370.4 335.3 -386.8 314.1 -403.9 293.5C-421 272.8 -438.8 252.8 -449.1 228.8C-459.3 204.9 -462 177.1 -464.7 151C-467.3 124.9 -470.1 100.5 -477.5 75.6C-484.9 50.7 -497 25.4 -509.1 0L0 0Z" fill="#9fa998"></path><path d="M0 339.4C-17.8 338.8 -35.7 338.1 -53.1 335.2C-70.5 332.4 -87.6 327.3 -104.1 320.4C-120.6 313.4 -136.5 304.7 -148.6 291.7C-160.8 278.8 -169.1 261.7 -183.1 252C-197 242.2 -216.5 239.9 -231.7 231.7C-247 223.5 -257.9 209.4 -269.3 195.6C-280.7 181.9 -292.6 168.5 -299.4 152.5C-306.2 136.6 -308 118 -309.8 100.7C-311.6 83.3 -313.4 67 -318.3 50.4C-323.3 33.8 -331.3 16.9 -339.4 0L0 0Z" fill="#8a9a88"></path><path d="M0 169.7C-8.9 169.4 -17.8 169.1 -26.5 167.6C-35.3 166.2 -43.8 163.6 -52 160.2C-60.3 156.7 -68.3 152.3 -74.3 145.9C-80.4 139.4 -84.6 130.8 -91.5 126C-98.5 121.1 -108.3 120 -115.9 115.9C-123.5 111.8 -128.9 104.7 -134.6 97.8C-140.3 90.9 -146.3 84.3 -149.7 76.3C-153.1 68.3 -154 59 -154.9 50.3C-155.8 41.6 -156.7 33.5 -159.2 25.2C-161.6 16.9 -165.7 8.5 -169.7 0L0 0Z" fill="#809280"></path></g><g transform="translate(0, 2160)"><path d="M0 -1188C64 -1188.1 128 -1188.3 184.1 -1162.5C240.3 -1136.7 288.5 -1085 345.5 -1063.3C402.5 -1041.6 468.1 -1049.9 528.4 -1037.1C588.8 -1024.4 643.7 -990.6 684.8 -942.5C725.8 -894.4 753 -832 772.9 -772.9C792.7 -713.7 805.1 -657.9 860.8 -625.4C916.4 -592.9 1015.3 -583.9 1058.5 -539.3C1101.7 -494.8 1089.3 -414.7 1061.4 -344.9C1033.4 -275 989.9 -215.5 1008.4 -159.7C1026.9 -104 1107.5 -52 1188 0L0 0Z" fill="#eeebe1"></path><path d="M0 -1018.3C54.9 -1018.4 109.7 -1018.5 157.8 -996.4C205.9 -974.3 247.3 -930 296.1 -911.4C345 -892.8 401.3 -899.9 453 -889C504.6 -878 551.7 -849.1 586.9 -807.9C622.1 -766.6 645.5 -713.1 662.5 -662.5C679.5 -611.8 690.1 -563.9 737.8 -536.1C785.5 -508.2 870.3 -500.5 907.3 -462.3C944.3 -424.1 933.7 -355.4 909.8 -295.6C885.8 -235.7 848.5 -184.7 864.4 -136.9C880.2 -89.1 949.3 -44.6 1018.3 0L0 0Z" fill="#dbdacd"></path><path d="M0 -848.6C45.7 -848.7 91.4 -848.8 131.5 -830.4C171.6 -811.9 206.1 -775 246.8 -759.5C287.5 -744 334.4 -749.9 377.5 -740.8C420.5 -731.7 459.8 -707.6 489.1 -673.2C518.5 -638.9 537.9 -594.3 552 -552C566.2 -509.8 575.1 -469.9 614.9 -446.7C654.6 -423.5 725.2 -417.1 756.1 -385.2C787 -353.4 778.1 -296.2 758.1 -246.3C738.2 -196.5 707.1 -153.9 720.3 -114.1C733.5 -74.3 791.1 -37.1 848.6 0L0 0Z" fill="#c7c9bb"></path><path d="M0 -678.9C36.6 -678.9 73.1 -679 105.2 -664.3C137.3 -649.6 164.9 -620 197.4 -607.6C230 -595.2 267.5 -599.9 302 -592.6C336.4 -585.4 367.8 -566.1 391.3 -538.6C414.8 -511.1 430.3 -475.4 441.6 -441.6C453 -407.8 460.1 -375.9 491.9 -357.4C523.7 -338.8 580.2 -333.7 604.9 -308.2C629.6 -282.7 622.5 -237 606.5 -197.1C590.5 -157.2 565.7 -123.1 576.2 -91.3C586.8 -59.4 632.8 -29.7 678.9 0L0 0Z" fill="#b3b9a9"></path><path d="M0 -509.1C27.4 -509.2 54.9 -509.3 78.9 -498.2C103 -487.2 123.6 -465 148.1 -455.7C172.5 -446.4 200.6 -449.9 226.5 -444.5C252.3 -439 275.9 -424.5 293.5 -403.9C311.1 -383.3 322.7 -356.6 331.2 -331.2C339.7 -305.9 345.1 -281.9 368.9 -268C392.8 -254.1 435.1 -250.2 453.6 -231.1C472.2 -212 466.9 -177.7 454.9 -147.8C442.9 -117.9 424.3 -92.4 432.2 -68.5C440.1 -44.6 474.6 -22.3 509.1 0L0 0Z" fill="#9fa998"></path><path d="M0 -339.4C18.3 -339.5 36.6 -339.5 52.6 -332.1C68.6 -324.8 82.4 -310 98.7 -303.8C115 -297.6 133.8 -300 151 -296.3C168.2 -292.7 183.9 -283 195.6 -269.3C207.4 -255.5 215.2 -237.7 220.8 -220.8C226.5 -203.9 230 -188 245.9 -178.7C261.8 -169.4 290.1 -166.8 302.4 -154.1C314.8 -141.4 311.2 -118.5 303.3 -98.5C295.3 -78.6 282.8 -61.6 288.1 -45.6C293.4 -29.7 316.4 -14.9 339.4 0L0 0Z" fill="#8a9a88"></path><path d="M0 -169.7C9.1 -169.7 18.3 -169.8 26.3 -166.1C34.3 -162.4 41.2 -155 49.4 -151.9C57.5 -148.8 66.9 -150 75.5 -148.2C84.1 -146.3 92 -141.5 97.8 -134.6C103.7 -127.8 107.6 -118.9 110.4 -110.4C113.2 -102 115 -94 123 -89.3C130.9 -84.7 145 -83.4 151.2 -77C157.4 -70.7 155.6 -59.2 151.6 -49.3C147.6 -39.3 141.4 -30.8 144.1 -22.8C146.7 -14.9 158.2 -7.4 169.7 0L0 0Z" fill="#809280"></path></g></svg>