<svg id="visual" viewBox="0 0 3840 2160" width="3840" height="2160" xmlns="http://www.w3.org/2000/svg" xmlns:xlink="http://www.w3.org/1999/xlink" version="1.1"><rect x="0" y="0" width="3840" height="2160" fill="#f7f4eb"></rect><path d="M2447 2160L2433.5 2108.5C2420 2057 2393 1954 2441.8 1851.2C2490.7 1748.3 2615.3 1645.7 2684.5 1542.8C2753.7 1440 2767.3 1337 2733.5 1234.2C2699.7 1131.3 2618.3 1028.7 2536 925.8C2453.7 823 2370.3 720 2399.5 617.2C2428.7 514.3 2570.3 411.7 2613.8 308.8C2657.3 206 2602.7 103 2575.3 51.5L2548 0L3840 0L3840 51.5C3840 103 3840 206 3840 308.8C3840 411.7 3840 514.3 3840 617.2C3840 720 3840 823 3840 925.8C3840 1028.7 3840 1131.3 3840 1234.2C3840 1337 3840 1440 3840 1542.8C3840 1645.7 3840 1748.3 3840 1851.2C3840 1954 3840 2057 3840 2108.5L3840 2160Z" fill="#69cbd1"></path><path d="M2777 2160L2740.7 2108.5C2704.3 2057 2631.7 1954 2586.3 1851.2C2541 1748.3 2523 1645.7 2588.8 1542.8C2654.7 1440 2804.3 1337 2885.2 1234.2C2966 1131.3 2978 1028.7 2924.3 925.8C2870.7 823 2751.3 720 2708 617.2C2664.7 514.3 2697.3 411.7 2683.3 308.8C2669.3 206 2608.7 103 2578.3 51.5L2548 0L3840 0L3840 51.5C3840 103 3840 206 3840 308.8C3840 411.7 3840 514.3 3840 617.2C3840 720 3840 823 3840 925.8C3840 1028.7 3840 1131.3 3840 1234.2C3840 1337 3840 1440 3840 1542.8C3840 1645.7 3840 1748.3 3840 1851.2C3840 1954 3840 2057 3840 2108.5L3840 2160Z" fill="#97d7c7"></path><path d="M2872 2160L2895 2108.5C2918 2057 2964 1954 2996.2 1851.2C3028.3 1748.3 3046.7 1645.7 3066.2 1542.8C3085.7 1440 3106.3 1337 3069.8 1234.2C3033.3 1131.3 2939.7 1028.7 2923.3 925.8C2907 823 2968 720 2989 617.2C3010 514.3 2991 411.7 2986.7 308.8C2982.3 206 2992.7 103 2997.8 51.5L3003 0L3840 0L3840 51.5C3840 103 3840 206 3840 308.8C3840 411.7 3840 514.3 3840 617.2C3840 720 3840 823 3840 925.8C3840 1028.7 3840 1131.3 3840 1234.2C3840 1337 3840 1440 3840 1542.8C3840 1645.7 3840 1748.3 3840 1851.2C3840 1954 3840 2057 3840 2108.5L3840 2160Z" fill="#c0e0c7"></path><path d="M3329 2160L3310.8 2108.5C3292.7 2057 3256.3 1954 3231.5 1851.2C3206.7 1748.3 3193.3 1645.7 3169 1542.8C3144.7 1440 3109.3 1337 3133.7 1234.2C3158 1131.3 3242 1028.7 3248.2 925.8C3254.3 823 3182.7 720 3156 617.2C3129.3 514.3 3147.7 411.7 3190.2 308.8C3232.7 206 3299.3 103 3332.7 51.5L3366 0L3840 0L3840 51.5C3840 103 3840 206 3840 308.8C3840 411.7 3840 514.3 3840 617.2C3840 720 3840 823 3840 925.8C3840 1028.7 3840 1131.3 3840 1234.2C3840 1337 3840 1440 3840 1542.8C3840 1645.7 3840 1748.3 3840 1851.2C3840 1954 3840 2057 3840 2108.5L3840 2160Z" fill="#e1e9d4"></path><path d="M3675 2160L3641.2 2108.5C3607.3 2057 3539.7 1954 3507.7 1851.2C3475.7 1748.3 3479.3 1645.7 3506.2 1542.8C3533 1440 3583 1337 3604.2 1234.2C3625.3 1131.3 3617.7 1028.7 3591.8 925.8C3566 823 3522 720 3502.3 617.2C3482.7 514.3 3487.3 411.7 3486 308.8C3484.7 206 3477.3 103 3473.7 51.5L3470 0L3840 0L3840 51.5C3840 103 3840 206 3840 308.8C3840 411.7 3840 514.3 3840 617.2C3840 720 3840 823 3840 925.8C3840 1028.7 3840 1131.3 3840 1234.2C3840 1337 3840 1440 3840 1542.8C3840 1645.7 3840 1748.3 3840 1851.2C3840 1954 3840 2057 3840 2108.5L3840 2160Z" fill="#f7f4eb"></path></svg>