<svg id="visual" viewBox="0 0 3840 2160" width="3840" height="2160" xmlns="http://www.w3.org/2000/svg" xmlns:xlink="http://www.w3.org/1999/xlink" version="1.1"><rect x="0" y="0" width="3840" height="2160" fill="#f7f4eb"></rect><g fill="none" stroke="#617544" stroke-width="2"><path d="M93.9 54.2L93.9 242L-93.9 242L-93.9 54.2L-256.6 -39.7L-162.7 -202.3L0 -108.4L162.7 -202.3L256.6 -39.7Z" transform="translate(1397 1830)"></path><path d="M35.4 20.4L35.4 91.1L-35.4 91.1L-35.4 20.4L-96.6 -14.9L-61.2 -76.2L0 -40.8L61.2 -76.2L96.6 -14.9Z" transform="translate(3293 239)"></path><path d="M82.6 47.7L82.6 212.8L-82.6 212.8L-82.6 47.7L-225.6 -34.9L-143 -177.9L0 -95.4L143 -177.9L225.6 -34.9Z" transform="translate(3643 1194)"></path><path d="M54.2 31.3L54.2 139.8L-54.2 139.8L-54.2 31.3L-148.2 -22.9L-93.9 -116.9L0 -62.6L93.9 -116.9L148.2 -22.9Z" transform="translate(711 1354)"></path><path d="M42.9 24.8L42.9 110.6L-42.9 110.6L-42.9 24.8L-117.2 -18.1L-74.3 -92.5L0 -49.5L74.3 -92.5L117.2 -18.1Z" transform="translate(676 3)"></path><path d="M59.4 34.3L59.4 153L-59.4 153L-59.4 34.3L-162.2 -25.1L-102.8 -127.9L0 -68.6L102.8 -127.9L162.2 -25.1Z" transform="translate(1533 711)"></path><path d="M40.7 23.5L40.7 105L-40.7 105L-40.7 23.5L-111.3 -17.2L-70.6 -87.8L0 -47.1L70.6 -87.8L111.3 -17.2Z" transform="translate(2200 461)"></path><path d="M68.3 39.4L68.3 176L-68.3 176L-68.3 39.4L-186.5 -28.9L-118.3 -147.1L0 -78.8L118.3 -147.1L186.5 -28.9Z" transform="translate(2814 1755)"></path><path d="M45.1 26L45.1 116.2L-45.1 116.2L-45.1 26L-123.1 -19L-78.1 -97.1L0 -52L78.1 -97.1L123.1 -19Z" transform="translate(133 550)"></path><path d="M41.6 24L41.6 107.1L-41.6 107.1L-41.6 24L-113.5 -17.6L-72 -89.5L0 -48L72 -89.5L113.5 -17.6Z" transform="translate(2119 1486)"></path><path d="M71 41L71 182.9L-71 182.9L-71 41L-193.9 -30L-122.9 -152.9L0 -82L122.9 -152.9L193.9 -30Z" transform="translate(3738 2130)"></path><path d="M64.2 37.1L64.2 165.5L-64.2 165.5L-64.2 37.1L-175.5 -27.1L-111.2 -138.4L0 -74.2L111.2 -138.4L175.5 -27.1Z" transform="translate(439 2063)"></path><path d="M39.7 22.9L39.7 102.2L-39.7 102.2L-39.7 22.9L-108.4 -16.8L-68.7 -85.5L0 -45.8L68.7 -85.5L108.4 -16.8Z" transform="translate(2777 964)"></path><path d="M70.7 40.8L70.7 182.2L-70.7 182.2L-70.7 40.8L-193.2 -29.9L-122.5 -152.3L0 -81.6L122.5 -152.3L193.2 -29.9Z" transform="translate(1498 10)"></path><path d="M56.9 32.9L56.9 146.8L-56.9 146.8L-56.9 32.9L-155.6 -24.1L-98.6 -122.7L0 -65.7L98.6 -122.7L155.6 -24.1Z" transform="translate(6 1415)"></path></g></svg>